<svg width="33" fill="none" xmlns="http://www.w3.org/2000/svg" viewBox="0 0 33 33" height="33">
 <path fill="white" d="M14.6453 22.2533L14.856 23.7283C14.8747 23.8593 14.9401 23.9792 15.0402 24.0659C15.1402 24.1525 15.2681 24.2002 15.4004 24.2002H17.6004C17.7327 24.2002 17.8606 24.1525 17.9607 24.0659C18.0607 23.9792 18.1261 23.8593 18.1449 23.7283L18.3555 22.2533C18.6657 22.1536 18.9672 22.0287 19.2569 21.8798L20.4488 22.7736C20.5546 22.8528 20.6855 22.8913 20.8174 22.8819C20.9494 22.8725 21.0735 22.8159 21.167 22.7224L22.7224 21.167C22.8159 21.0735 22.8725 20.9494 22.8819 20.8174C22.8913 20.6855 22.8528 20.5546 22.7736 20.4488L21.8798 19.2569C22.0287 18.9672 22.1536 18.6657 22.2533 18.3555L23.7283 18.1449C23.8593 18.1261 23.9792 18.0607 24.0659 17.9607C24.1525 17.8606 24.2002 17.7327 24.2002 17.6004V15.4004C24.2002 15.2681 24.1525 15.1402 24.0659 15.0402C23.9792 14.9401 23.8593 14.8747 23.7283 14.856L22.2533 14.6453C22.1536 14.3351 22.0287 14.0337 21.8798 13.7439L22.7736 12.5521C22.8528 12.4462 22.8913 12.3153 22.8819 12.1834C22.8725 12.0515 22.8159 11.9273 22.7224 11.8338L21.167 10.2784C21.0738 10.1843 20.9496 10.1273 20.8175 10.1179C20.6854 10.1085 20.5544 10.1473 20.4488 10.2273L19.2569 11.121C18.9672 10.9721 18.6657 10.8472 18.3555 10.7476L18.1449 9.27249C18.1261 9.14148 18.0607 9.02164 17.9607 8.93497C17.8606 8.84829 17.7327 8.80058 17.6004 8.8006H15.4004C15.2681 8.80058 15.1402 8.84829 15.0402 8.93497C14.9401 9.02164 14.8747 9.14148 14.856 9.27249L14.6453 10.7476C14.3351 10.8472 14.0337 10.9721 13.7439 11.121L12.5521 10.2273C12.4465 10.1471 12.3155 10.1081 12.1833 10.1175C12.0511 10.1269 11.9269 10.1841 11.8338 10.2784L10.2784 11.8338C10.185 11.9273 10.1283 12.0515 10.1189 12.1834C10.1095 12.3153 10.148 12.4462 10.2273 12.5521L11.121 13.7439C10.9721 14.0337 10.8472 14.3351 10.7476 14.6453L9.27249 14.856C9.14148 14.8747 9.02164 14.9401 8.93497 15.0402C8.84829 15.1402 8.80058 15.2681 8.8006 15.4004V17.6004C8.80058 17.7327 8.84829 17.8606 8.93497 17.9607C9.02164 18.0607 9.14148 18.1261 9.27249 18.1449L10.7476 18.3555C10.8472 18.6657 10.9721 18.9672 11.121 19.2569L10.2273 20.4488C10.148 20.5546 10.1095 20.6855 10.1189 20.8174C10.1283 20.9494 10.185 21.0735 10.2784 21.167L11.8338 22.7224C11.9273 22.8159 12.0515 22.8725 12.1834 22.8819C12.3153 22.8913 12.4462 22.8528 12.5521 22.7736L13.7439 21.8798C14.0337 22.0287 14.3351 22.1536 14.6453 22.2533ZM13.3688 20.787L12.2738 21.6076L11.3938 20.7276L12.2144 19.6326C12.2797 19.5456 12.3178 19.4411 12.3238 19.3324C12.3298 19.2238 12.3034 19.1158 12.2479 19.0221C12.0075 18.6182 11.8266 18.1818 11.7106 17.7263C11.6838 17.6208 11.6263 17.5255 11.5453 17.4527C11.4643 17.3798 11.3636 17.3326 11.2557 17.3171L9.90057 17.1235V15.8773L11.2552 15.6842C11.363 15.6687 11.4638 15.6216 11.5448 15.5487C11.6257 15.4759 11.6833 15.3806 11.71 15.275C11.826 14.8196 12.007 14.3832 12.2474 13.9793C12.3028 13.8856 12.3292 13.7776 12.3232 13.6689C12.3173 13.5603 12.2792 13.4558 12.2138 13.3688L11.3932 12.2738L12.2732 11.3938L13.3682 12.2144C13.4553 12.2797 13.5597 12.3178 13.6684 12.3238C13.7771 12.3298 13.8851 12.3034 13.9787 12.2479C14.3826 12.0075 14.819 11.8266 15.2745 11.7106C15.3801 11.6838 15.4753 11.6263 15.5482 11.5453C15.621 11.4643 15.6682 11.3636 15.6837 11.2557L15.8773 9.90057H17.1235L17.3166 11.2552C17.3321 11.363 17.3793 11.4638 17.4521 11.5448C17.525 11.6257 17.6202 11.6833 17.7258 11.71C18.1813 11.826 18.6177 12.007 19.0216 12.2474C19.1152 12.3028 19.2232 12.3292 19.3319 12.3232C19.4406 12.3173 19.545 12.2792 19.632 12.2138L20.7271 11.3932L21.607 12.2732L20.7865 13.3682C20.7211 13.4553 20.683 13.5597 20.677 13.6684C20.6711 13.7771 20.6975 13.8851 20.7529 13.9787C20.9933 14.3826 21.1743 14.819 21.2902 15.2745C21.317 15.3801 21.3745 15.4753 21.4555 15.5482C21.5365 15.621 21.6373 15.6682 21.7451 15.6837L23.1003 15.8773V17.1235L21.7456 17.3166C21.6378 17.3321 21.537 17.3793 21.4561 17.4521C21.3751 17.525 21.3176 17.6202 21.2908 17.7258C21.1748 18.1813 20.9939 18.6177 20.7535 19.0216C20.698 19.1152 20.6716 19.2232 20.6776 19.3319C20.6836 19.4406 20.7216 19.545 20.787 19.632L21.6076 20.7271L20.7276 21.607L19.6326 20.7865C19.5456 20.7211 19.4411 20.683 19.3324 20.677C19.2238 20.6711 19.1158 20.6975 19.0221 20.7529C18.6182 20.9933 18.1818 21.1743 17.7263 21.2902C17.6208 21.317 17.5255 21.3745 17.4527 21.4555C17.3798 21.5365 17.3326 21.6373 17.3171 21.7451L17.1235 23.1003H15.8773L15.6842 21.7456C15.6687 21.6378 15.6216 21.537 15.5487 21.4561C15.4759 21.3751 15.3806 21.3176 15.275 21.2908C14.8196 21.1748 14.3832 20.9939 13.9793 20.7535C13.8856 20.698 13.7776 20.6716 13.6689 20.6776C13.5603 20.6836 13.4558 20.7216 13.3688 20.787Z"/>
 <path fill="white" d="M16.5004 19.8003C17.1531 19.8003 17.7911 19.6067 18.3337 19.2441C18.8764 18.8815 19.2994 18.3662 19.5491 17.7632C19.7989 17.1602 19.8642 16.4967 19.7369 15.8566C19.6096 15.2165 19.2953 14.6285 18.8338 14.167C18.3723 13.7055 17.7843 13.3912 17.1442 13.2638C16.5041 13.1365 15.8405 13.2019 15.2376 13.4516C14.6346 13.7014 14.1192 14.1244 13.7566 14.667C13.394 15.2097 13.2005 15.8477 13.2005 16.5004C13.2013 17.3753 13.5493 18.2141 14.168 18.8328C14.7866 19.4515 15.6255 19.7994 16.5004 19.8003ZM16.5004 14.3004C16.9355 14.3004 17.3608 14.4294 17.7226 14.6712C18.0844 14.9129 18.3664 15.2565 18.5329 15.6585C18.6994 16.0605 18.743 16.5028 18.6581 16.9295C18.5732 17.3563 18.3637 17.7483 18.056 18.056C17.7483 18.3636 17.3563 18.5732 16.9296 18.658C16.5028 18.7429 16.0605 18.6994 15.6585 18.5328C15.2565 18.3663 14.9129 18.0844 14.6712 17.7226C14.4295 17.3608 14.3004 16.9355 14.3004 16.5004C14.3004 15.9169 14.5322 15.3573 14.9448 14.9448C15.3574 14.5322 15.9169 14.3004 16.5004 14.3004Z"/>
 <path fill="white" d="M16.5004 2.75074C16.6463 2.75074 16.7862 2.69279 16.8893 2.58965C16.9925 2.48651 17.0504 2.34662 17.0504 2.20075V1.72501L18.9413 3.30072L17.0504 4.87644V4.4007C17.0504 4.25483 16.9925 4.11494 16.8893 4.0118C16.7862 3.90865 16.6463 3.85071 16.5004 3.85071C14.0606 3.8532 11.6734 4.55982 9.62534 5.88575C7.57728 7.21167 5.95545 9.10054 4.95454 11.3256L5.95772 11.7755C6.83371 9.82933 8.23056 8.16318 9.99398 6.96104C11.7574 5.7589 13.8188 5.06754 15.9504 4.96333V6.05066C15.9503 6.15531 15.98 6.25783 16.0361 6.34619C16.0921 6.43455 16.1723 6.50507 16.267 6.54948C16.3618 6.59388 16.4673 6.61033 16.571 6.59689C16.6748 6.58345 16.7726 6.54068 16.853 6.4736L20.1529 3.72366C20.215 3.67205 20.2649 3.6074 20.2992 3.53431C20.3335 3.46121 20.3513 3.38146 20.3513 3.30072C20.3513 3.21998 20.3335 3.14024 20.2992 3.06714C20.2649 2.99404 20.215 2.9294 20.1529 2.87778L16.853 0.12785C16.7726 0.0607681 16.6748 0.0179957 16.571 0.00455511C16.4673 -0.00888552 16.3618 0.00756365 16.267 0.0519712C16.1723 0.0963787 16.0921 0.166901 16.0361 0.255258C15.98 0.343615 15.9503 0.446138 15.9504 0.55079V1.66121C13.0115 1.77768 10.1726 2.76054 7.79077 4.48621C5.40896 6.21187 3.59057 8.60328 2.5643 11.3597L3.59663 11.7414C4.57665 9.10746 6.33721 6.83541 8.64304 5.22884C10.9489 3.62227 13.6901 2.75772 16.5004 2.75074Z"/>
 <path fill="white" d="M16.5004 30.2501C16.3545 30.2501 16.2146 30.308 16.1115 30.4112C16.0084 30.5143 15.9504 30.6542 15.9504 30.8001V31.2758L14.0596 29.7001L15.9504 28.1244V28.6001C15.9504 28.746 16.0084 28.8859 16.1115 28.989C16.2146 29.0922 16.3545 29.1501 16.5004 29.1501C18.9402 29.1476 21.3274 28.441 23.3755 27.1151C25.4235 25.7891 27.0454 23.9003 28.0463 21.6752L27.0431 21.2253C26.1671 23.1715 24.7703 24.8376 23.0068 26.0398C21.2434 27.2419 19.182 27.9333 17.0504 28.0375V26.9502C17.0505 26.8455 17.0208 26.743 16.9648 26.6546C16.9087 26.5663 16.8285 26.4957 16.7338 26.4513C16.639 26.4069 16.5336 26.3905 16.4298 26.4039C16.326 26.4174 16.2282 26.4601 16.1479 26.5272L12.8479 29.2771C12.7859 29.3288 12.7359 29.3934 12.7016 29.4665C12.6673 29.5396 12.6495 29.6193 12.6495 29.7001C12.6495 29.7808 12.6673 29.8606 12.7016 29.9337C12.7359 30.0068 12.7859 30.0714 12.8479 30.123L16.1479 32.873C16.247 32.955 16.3717 32.9999 16.5004 33C16.581 33.0001 16.6607 32.9822 16.7336 32.9478C16.8282 32.9035 16.9083 32.8331 16.9644 32.745C17.0205 32.6568 17.0503 32.5545 17.0504 32.45V31.3396C19.9893 31.2231 22.8282 30.2403 25.21 28.5146C27.5919 26.7889 29.4102 24.3975 30.4365 21.6411L29.4042 21.2594C28.4242 23.8933 26.6636 26.1654 24.3578 27.772C22.052 29.3785 19.3107 30.2431 16.5004 30.2501Z"/>
 <path fill="white" d="M32.9478 16.2672C32.9035 16.1726 32.8331 16.0925 32.745 16.0364C32.6568 15.9803 32.5545 15.9505 32.45 15.9504H31.3396C31.2228 13.0117 30.2398 10.1731 28.5141 7.79151C26.7885 5.40994 24.3973 3.59169 21.6411 2.56537L21.2594 3.59769C23.8932 4.57765 26.1651 6.33804 27.7717 8.64365C29.3782 10.9493 30.2429 13.6903 30.2501 16.5004C30.2501 16.6462 30.308 16.7861 30.4112 16.8893C30.5143 16.9924 30.6542 17.0504 30.8001 17.0504H31.2758L29.7001 18.9412L28.1244 17.0504H28.6001C28.746 17.0504 28.8859 16.9924 28.989 16.8893C29.0922 16.7861 29.1501 16.6462 29.1501 16.5004C29.1474 14.0602 28.4409 11.6726 27.1151 9.62398C25.7894 7.57535 23.9007 5.9527 21.6758 4.95066L21.2248 5.95384C23.1712 6.83061 24.8374 8.22816 26.0397 9.99221C27.2419 11.7563 27.9332 13.8182 28.0375 15.9504H26.9502C26.8455 15.9502 26.743 15.9799 26.6546 16.036C26.5663 16.0921 26.4957 16.1722 26.4513 16.267C26.4069 16.3618 26.3905 16.4672 26.4039 16.571C26.4174 16.6748 26.4601 16.7726 26.5272 16.8529L29.2771 20.1528C29.3288 20.2149 29.3934 20.2649 29.4665 20.2992C29.5396 20.3335 29.6193 20.3512 29.7001 20.3512C29.7808 20.3512 29.8606 20.3335 29.9337 20.2992C30.0068 20.2649 30.0714 20.2149 30.123 20.1528L32.873 16.8529C32.9398 16.7725 32.9824 16.6747 32.9956 16.5709C33.0089 16.4672 32.9923 16.3618 32.9478 16.2672Z"/>
 <path fill="white" d="M3.85071 16.5004C3.84521 18.8334 4.48727 21.1222 5.70541 23.112C6.92354 25.1019 8.66997 26.7146 10.7503 27.7707L11.2508 26.7912C9.43458 25.8691 7.89561 24.4816 6.79099 22.7703C5.68638 21.0589 5.05569 19.0851 4.96333 17.0504H6.05066C6.15531 17.0505 6.25783 17.0208 6.34619 16.9647C6.43455 16.9087 6.50507 16.8285 6.54948 16.7338C6.59388 16.639 6.61033 16.5335 6.59689 16.4297C6.58345 16.326 6.54068 16.2282 6.4736 16.1478L3.72366 12.8479C3.67019 12.7888 3.60493 12.7416 3.53208 12.7093C3.45924 12.6769 3.38042 12.6602 3.30072 12.6602C3.22102 12.6602 3.14221 12.6769 3.06936 12.7093C2.99651 12.7416 2.93125 12.7888 2.87778 12.8479L0.12785 16.1478C0.0607681 16.2282 0.0179957 16.326 0.00455511 16.4297C-0.00888552 16.5335 0.00756365 16.639 0.0519712 16.7338C0.0963787 16.8285 0.166901 16.9087 0.255258 16.9647C0.343615 17.0208 0.446138 17.0505 0.55079 17.0504H1.66121C1.76134 19.8885 2.67515 22.638 4.29381 24.9714C5.91247 27.3048 8.16774 29.1237 10.791 30.2116L11.2145 29.1963C8.70533 28.1557 6.56156 26.3937 5.05481 24.1335C3.54807 21.8733 2.74617 19.2167 2.75074 16.5004C2.75074 16.3545 2.69279 16.2146 2.58965 16.1115C2.48651 16.0083 2.34662 15.9504 2.20075 15.9504H1.72501L3.30072 14.0595L4.87644 15.9504H4.4007C4.25483 15.9504 4.11494 16.0083 4.0118 16.1115C3.90865 16.2146 3.85071 16.3545 3.85071 16.5004Z"/>
</svg>
